<?xml version="1.0" encoding="UTF-8"?>
<svg width="36px" height="36px" viewBox="0 0 36 36" version="1.1" xmlns="http://www.w3.org/2000/svg" xmlns:xlink="http://www.w3.org/1999/xlink">
    <title>图标/无障碍/声音备份</title>
    <g id="图标/无障碍/声音备份" stroke="none" stroke-width="1" fill="none" fill-rule="evenodd">
        <path d="M19.3586122,2.5 L19.3586122,33.5 C13.4580979,33.5 9.07359435,25.6114472 9.07359435,25.6114472 L4.18586122,25.6114472 C3.25478536,25.6114472 2.5,24.8404083 2.5,23.889225 L2.5,11.9815222 C2.5,11.0303389 3.25478536,10.2593 4.18586122,10.2593 L9.07359435,10.2593 C9.07359435,10.2593 13.4580979,2.5 19.3586122,2.5 Z" id="路径" fill="#FFFFFF"></path>
        <g id="编组" transform="translate(24.000000, 4.000000)" stroke="#FFFFFF" stroke-linecap="round" stroke-width="4">
            <path d="M0,6.52320275 L0,6.52320275 C0.496130225,6.9757884 0.945847753,7.48261926 1.34071391,8.03491201 C2.49872262,9.65462373 3.18440452,11.6649498 3.18440452,13.8426472 C3.18440452,16.0014767 2.51050492,17.9957813 1.37072693,19.6081736 C0.968695856,20.1768131 0.508788233,20.6979575 0,21.1620916" id="路径" stroke-linejoin="round"></path>
            <path d="M1.78000252,27.819289 C6.4353631,24.9806458 9.55321357,19.7835963 9.55321357,13.8426472 C9.55321357,7.99400444 6.53145251,2.86632698 1.99582553,0" id="路径"></path>
        </g>
    </g>
</svg>