<?xml version="1.0" encoding="UTF-8"?>
<svg width="36px" height="36px" viewBox="0 0 36 36" version="1.1" xmlns="http://www.w3.org/2000/svg" xmlns:xlink="http://www.w3.org/1999/xlink">
    <title>图标/无障碍/大字幕备份</title>
    <g id="图标/无障碍/大字幕备份" stroke="none" stroke-width="1" fill="none" fill-rule="evenodd">
        <path d="M29,3 C31.209139,3 33,4.790861 33,7 L33,22 C33,24.209139 31.209139,26 29,26 L7,26 C4.790861,26 3,24.209139 3,22 L3,7 C3,4.790861 4.790861,3 7,3 L29,3 Z M18.8214875,5.81170783 C17.681669,5.35397031 16.386594,5.90690619 15.9288565,7.0467247 L10.4945958,20.5786519 C10.0829661,21.6036566 10.5802049,22.768279 11.6052097,23.1799087 L11.7524923,23.2325713 C12.7394234,23.5429855 13.8144382,23.0454899 14.2064665,22.0692949 L15.358,19.1999154 L20.626,19.1999154 L21.7788944,22.0692949 C22.1905241,23.0942996 23.3551465,23.5915384 24.3801512,23.1799087 C25.405156,22.768279 25.9023947,21.6036566 25.490765,20.5786519 L20.0565044,7.0467247 C19.8304668,6.48386532 19.3843469,6.03774545 18.8214875,5.81170783 Z M17.9925312,12.6403798 L19.02,15.1999154 L16.964,15.1999154 L17.9925312,12.6403798 Z" id="形状结合" fill="#FFFFFF"></path>
        <line x1="7" y1="31" x2="29" y2="31" id="路径" stroke="#FFFFFF" stroke-width="3.6" stroke-linecap="round" stroke-linejoin="round"></line>
    </g>
</svg>