<?xml version="1.0" encoding="UTF-8"?>
<svg width="36px" height="36px" viewBox="0 0 36 36" version="1.1" xmlns="http://www.w3.org/2000/svg" xmlns:xlink="http://www.w3.org/1999/xlink">
    <title>图标/无障碍/对比色备份</title>
    <g id="图标/无障碍/对比色备份" stroke="none" stroke-width="1" fill="none" fill-rule="evenodd">
        <g id="编组" transform="translate(3.000000, 3.000000)">
            <path d="M15,30 C19.1421,30 22.8921,28.32105 25.606575,25.606575 C28.32105,22.8921 30,19.1421 30,15 C30,10.8579 28.32105,7.1079 25.606575,4.393395 C22.8921,1.678935 19.1421,0 15,0 C10.8579,0 7.1079,1.678935 4.393395,4.393395 C1.678935,7.1079 0,10.8579 0,15 C0,19.1421 1.678935,22.8921 4.393395,25.606575 C7.1079,28.32105 10.8579,30 15,30 Z" id="路径" stroke="#FFFFFF" stroke-width="4" stroke-linejoin="round"></path>
            <path d="M15,0 C10.8579,0 7.1079,1.678935 4.393395,4.393395 C1.678935,7.1079 0,10.8579 0,15 C0,19.1421 1.678935,22.8921 4.393395,25.606575 C7.1079,28.32105 10.8579,30 15,30" id="路径" fill="#FFFFFF"></path>
        </g>
    </g>
</svg>