<?xml version="1.0" encoding="UTF-8"?>
<svg width="36px" height="36px" viewBox="0 0 36 36" version="1.1" xmlns="http://www.w3.org/2000/svg" xmlns:xlink="http://www.w3.org/1999/xlink">
    <title>图标/无障碍/放大备份</title>
    <g id="图标/无障碍/放大备份" stroke="none" stroke-width="1" fill="none" fill-rule="evenodd">
        <path d="M17,2 C25.2842353,2 32,8.71576471 32,17 C32,25.2842353 25.2842353,32 17,32 C8.71576471,32 2,25.2842353 2,17 C2,8.71576471 8.71576471,2 17,2 Z M17,9 C15.8954305,9 15,9.8954305 15,11 L15,15 L11,15 C9.9456382,15 9.08183488,15.8158778 9.00548574,16.8507377 L9,17 C9,18.1045695 9.8954305,19 11,19 L15,19 L15,23 C15,24.0543618 15.8158778,24.9181651 16.8507377,24.9945143 L17,25 C18.1045695,25 19,24.1045695 19,23 L19,19 L23,19 C24.0543618,19 24.9181651,18.1841222 24.9945143,17.1492623 L25,17 C25,15.8954305 24.1045695,15 23,15 L19,15 L19,11 C19,9.9456382 18.1841222,9.08183488 17.1492623,9.00548574 Z" id="形状结合" fill="#FFFFFF"></path>
        <line x1="26.7989413" y1="26.7989604" x2="34" y2="34" id="路径" stroke="#FFFFFF" stroke-width="4" stroke-linecap="round" stroke-linejoin="round"></line>
    </g>
</svg>