<?xml version="1.0" encoding="UTF-8"?>
<svg width="36px" height="36px" viewBox="0 0 36 36" version="1.1" xmlns="http://www.w3.org/2000/svg" xmlns:xlink="http://www.w3.org/1999/xlink">
    <title>图标/无障碍/纯文本备份</title>
    <g id="图标/无障碍/纯文本备份" stroke="none" stroke-width="1" fill="none" fill-rule="evenodd">
        <path d="M28,2 C31.3137085,2 34,4.6862915 34,8 L34,28 C34,31.3137085 31.3137085,34 28,34 L8,34 C4.6862915,34 2,31.3137085 2,28 L2,8 C2,4.6862915 4.6862915,2 8,2 L28,2 Z M24,11 L12,11 C10.8954305,11 10,11.8954305 10,13 C10,14.1045695 10.8954305,15 12,15 L16,15 L16,26 C16,27.0543618 16.8158778,27.9181651 17.8507377,27.9945143 L18,28 C19.1045695,28 20,27.1045695 20,26 L20,15 L24,15 C25.0543618,15 25.9181651,14.1841222 25.9945143,13.1492623 L26,13 C26,11.8954305 25.1045695,11 24,11 Z" id="形状结合" fill="#FFFFFF"></path>
    </g>
</svg>