<?xml version="1.0" encoding="UTF-8"?>
<svg width="36px" height="36px" viewBox="0 0 36 36" version="1.1" xmlns="http://www.w3.org/2000/svg" xmlns:xlink="http://www.w3.org/1999/xlink">
    <title>图标/无障碍/缩小备份</title>
    <g id="图标/无障碍/缩小备份" stroke="none" stroke-width="1" fill="none" fill-rule="evenodd">
        <path d="M17,2 C25.2842353,2 32,8.71576471 32,17 C32,25.2842353 25.2842353,32 17,32 C8.71576471,32 2,25.2842353 2,17 C2,8.71576471 8.71576471,2 17,2 Z M23,15 L11,15 C9.8954305,15 9,15.8954305 9,17 C9,18.1045695 9.8954305,19 11,19 L23,19 C24.1045695,19 25,18.1045695 25,17 C25,15.8954305 24.1045695,15 23,15 Z" id="形状结合" fill="#FFFFFF"></path>
        <line x1="26.7989413" y1="26.7989604" x2="34" y2="34" id="路径" stroke="#FFFFFF" stroke-width="4" stroke-linecap="round" stroke-linejoin="round"></line>
    </g>
</svg>