<?xml version="1.0" encoding="UTF-8"?>
<svg width="36px" height="36px" viewBox="0 0 36 36" version="1.1" xmlns="http://www.w3.org/2000/svg" xmlns:xlink="http://www.w3.org/1999/xlink">
    <title>图标/无障碍/语速备份</title>
    <g id="图标/无障碍/语速备份" stroke="none" stroke-width="1" fill="none" fill-rule="evenodd">
        <path d="M18,1 C27.3888407,1 35,8.61115925 35,18 C35,27.3888407 27.3888407,35 18,35 C8.61115925,35 1,27.3888407 1,18 C1,8.61115925 8.61115925,1 18,1 Z M21.833752,11.4164127 C21.3070115,9.63569408 18.770426,9.47776529 18.0614672,11.2611794 L15.59,17.479 L13.9998024,13.5200819 L13.9338302,13.3723365 C13.2506043,11.9875839 11.2759896,11.8653805 10.4424899,13.2146094 L8.437,16.462 L6,16.4615385 C4.8954305,16.4615385 4,17.356969 4,18.4615385 C4,19.566108 4.8954305,20.4615385 6,20.4615385 L9.552,20.4615385 L9.7110089,20.4552232 C10.3426955,20.4049345 10.9171681,20.0571175 11.2535101,19.5126633 L11.765,18.686 L13.7441976,23.6127852 L13.8145519,23.7697128 C14.5688946,25.2865425 16.8129023,25.2300628 17.4585328,23.6059535 L19.353,18.842 L20.5570844,24.4222618 C20.9362974,26.1778774 23.2579216,26.5825549 24.2087588,25.0587775 L27.078,20.462 L30,20.4615385 C31.1045695,20.4615385 32,19.566108 32,18.4615385 C32,17.356969 31.1045695,16.4615385 30,16.4615385 L25.968,16.4615385 L25.7966242,16.4688772 C25.172935,16.5224274 24.6061242,16.8660897 24.2712412,17.402761 L23.426,18.759 L21.8749156,11.5777382 Z" id="形状结合" fill="#FFFFFF"></path>
    </g>
</svg>