<?xml version="1.0" encoding="UTF-8"?>
<svg width="36px" height="36px" viewBox="0 0 36 36" version="1.1" xmlns="http://www.w3.org/2000/svg" xmlns:xlink="http://www.w3.org/1999/xlink">
    <title>图标/无障碍/说明备份</title>
    <g id="图标/无障碍/说明备份" stroke="none" stroke-width="1" fill="none" fill-rule="evenodd">
        <path d="M18,1 C22.69438,1 26.94438,2.902793 30.020785,5.979181 C33.09719,9.05562 35,13.30562 35,18 C35,22.69438 33.09719,26.94438 30.020785,30.020785 C26.94438,33.09719 22.69438,35 18,35 C13.30562,35 9.05562,33.09719 5.979181,30.020785 C2.902793,26.94438 1,22.69438 1,18 C1,13.30562 2.902793,9.05562 5.979181,5.979181 C9.05562,2.902793 13.30562,1 18,1 Z M18.2,24.8 C16.984984,24.8 16,25.784984 16,27 C16,28.215016 16.984984,29.2 18.2,29.2 C19.415016,29.2 20.4,28.215016 20.4,27 C20.4,25.784984 19.415016,24.8 18.2,24.8 Z M18,7 C14.2444705,7 11.2,10.0444705 11.2,13.8 C11.2,14.9045695 12.0954305,15.8 13.2,15.8 C14.3045695,15.8 15.2,14.9045695 15.2,13.8 C15.2,12.2536095 16.4536095,11 18,11 C19.5463905,11 20.8,12.2536095 20.8,13.8 C20.8,15.3463905 19.5463905,16.6 18,16.6 C16.8954305,16.6 16,17.4954305 16,18.6 L16,21.8 C16,22.9045695 16.8954305,23.8 18,23.8 L18.1492623,23.7945143 C19.1841222,23.7181651 20,22.8543618 20,21.8 L20,20.299 L20.0628279,20.2814787 C22.8098617,19.4079593 24.8,16.8363856 24.8,13.8 C24.8,10.0444705 21.7555295,7 18,7 Z" id="形状结合" fill="#FFFFFF"></path>
    </g>
</svg>