<?xml version="1.0" encoding="UTF-8"?>
<svg width="36px" height="36px" viewBox="0 0 36 36" version="1.1" xmlns="http://www.w3.org/2000/svg" xmlns:xlink="http://www.w3.org/1999/xlink">
    <title>图标/无障碍/首页备份 3</title>
    <g id="图标/无障碍/首页备份-3" stroke="none" stroke-width="1" fill="none" fill-rule="evenodd">
        <path d="M30.5718932,33 L22.3578017,33 C21.8414435,33 21.4239521,32.578917 21.4239521,32.0625561 L21.4239521,21.8106885 C21.4239521,21.3504512 21.050856,20.9773552 20.5906187,20.9773552 L15.4092181,20.9773552 C14.9489808,20.9773552 14.5758848,21.3504512 14.5758848,21.8106885 L14.5758848,32.0625561 L14.5758848,32.0625561 C14.5758848,32.578917 14.1575776,33 13.6420352,33 L5.4279437,33 C4.08851232,33 3,31.9069136 3,30.5629068 L3,15.3835265 C3,14.259279 3.67754671,12.9069517 4.57746188,12.2377218 L16.2430772,3.55306907 C16.7219116,3.19593981 17.344478,3 18,3 C18.6537273,3 19.2780884,3.19593981 19.7561071,3.55306907 L31.4217224,12.2377218 C32.3224533,12.9069517 33,14.259279 33,15.3835265 L33,30.5629068 C32.9996737,31.9069136 31.9103457,33 30.5718932,33 Z" id="路径" fill="#FFFFFF" fill-rule="nonzero"></path>
    </g>
</svg>