<?xml version="1.0" encoding="UTF-8"?>
<svg width="36px" height="36px" viewBox="0 0 36 36" version="1.1" xmlns="http://www.w3.org/2000/svg" xmlns:xlink="http://www.w3.org/1999/xlink">
    <title>图标/无障碍/鼠标备份</title>
    <g id="图标/无障碍/鼠标备份" stroke="none" stroke-width="1" fill="none" fill-rule="evenodd">
        <path d="M16.9694128,-2.13852966 L31.2613962,24.0902401 C31.4026605,24.3494897 31.3070147,24.6741703 31.0477651,24.8154346 C30.9038505,24.8938533 30.7319167,24.9019225 30.5812902,24.8373273 L19.3667701,20.0280502 L19.3667701,20.0280502 L19.3701582,36 C19.3704875,36.5522847 18.9228672,37.0000949 18.3705825,37.0002121 C18.3705118,37.0002121 18.3704411,37.0002121 18.3703704,37 L14.6296296,37 C14.0773449,37 13.6296296,36.5522847 13.6296296,36 L13.6296296,20.0204477 L13.6296296,20.0204477 L2.41974128,24.8358567 C2.14847201,24.9523853 1.83409973,24.8269432 1.71757114,24.555674 C1.6528385,24.4049815 1.66086125,24.2329139 1.73933482,24.0888986 L16.0305872,-2.13852966 C16.1718516,-2.39777918 16.4965322,-2.49342507 16.7557817,-2.35216073 C16.8460519,-2.30297278 16.9202248,-2.22879981 16.9694128,-2.13852966 Z" id="三角形" fill="#FFFFFF" transform="translate(16.500000, 17.000000) rotate(-45.000000) translate(-16.500000, -17.000000) "></path>
    </g>
</svg>